<svg xmlns="http://www.w3.org/2000/svg" viewBox="0 0 900 320" role="img"><title>Same coloured solute, same final solution volume</title><rect width="100%" height="100%" rx="16" fill="#f8fafc"/><g font-family="DejaVu Sans, Arial, sans-serif" fill="#0f172a"><text x="450.0" y="30" text-anchor="middle" font-size="22">Same coloured solute, same final solution volume</text><path d="M150 80 V230 H350 V80" fill="none" stroke="#475569" stroke-width="3"/><rect x="152" y="120" width="196" height="108" fill="#bfdbfe"/><text x="250" y="265" text-anchor="middle" font-size="16">Dilute: pale solution</text><circle cx="175" cy="145" r="5" fill="#1e3a8a"/><circle cx="211" cy="145" r="5" fill="#1e3a8a"/><circle cx="247" cy="145" r="5" fill="#1e3a8a"/><circle cx="283" cy="145" r="5" fill="#1e3a8a"/><circle cx="319" cy="145" r="5" fill="#1e3a8a"/><path d="M550 80 V230 H750 V80" fill="none" stroke="#475569" stroke-width="3"/><rect x="552" y="120" width="196" height="108" fill="#3b82f6"/><text x="650" y="265" text-anchor="middle" font-size="16">Concentrated: dark solution</text><circle cx="575" cy="145" r="5" fill="#1e3a8a"/><circle cx="611" cy="145" r="5" fill="#1e3a8a"/><circle cx="647" cy="145" r="5" fill="#1e3a8a"/><circle cx="683" cy="145" r="5" fill="#1e3a8a"/><circle cx="719" cy="145" r="5" fill="#1e3a8a"/><circle cx="575" cy="175" r="5" fill="#1e3a8a"/><circle cx="611" cy="175" r="5" fill="#1e3a8a"/><circle cx="647" cy="175" r="5" fill="#1e3a8a"/><circle cx="683" cy="175" r="5" fill="#1e3a8a"/><circle cx="719" cy="175" r="5" fill="#1e3a8a"/><circle cx="575" cy="205" r="5" fill="#1e3a8a"/><circle cx="611" cy="205" r="5" fill="#1e3a8a"/><circle cx="647" cy="205" r="5" fill="#1e3a8a"/><circle cx="683" cy="205" r="5" fill="#1e3a8a"/><circle cx="719" cy="205" r="5" fill="#1e3a8a"/><text x="450" y="295" text-anchor="middle" font-size="14">Equal viewing depth • dots represent dissolved solute particles</text></g></svg>